<?xml version="1.0" encoding="UTF-8"?><svg id="uuid-a2480f3a-9706-4c9c-b249-38698da954d6" xmlns="http://www.w3.org/2000/svg" xmlns:xlink="http://www.w3.org/1999/xlink" viewBox="0 0 415.1 326.85"><defs><style>.uuid-26e1e704-e45e-4175-9bca-305be364ec94{fill:#08557c;font-size:110.34px;letter-spacing:.02em;}.uuid-52e7efe7-843f-482c-9fdf-1440af7e7877{fill:url(#uuid-b7972ea9-953c-4e59-9f2d-6f7f0b279919);}.uuid-4919bb7f-2349-48ef-a27e-f831b3007851{fill:url(#uuid-f523c8db-698a-4c65-885d-a709a81b43c1);}.uuid-b3df3090-1c64-4a69-9598-8c56c075057c{fill:#9c9ba0;font-family:MyriadConceptRoman-Semibold, 'Myriad Variable Concept';font-size:30.35px;font-variation-settings:'wght' 600, 'wdth' 100;font-weight:700;letter-spacing:.34em;}.uuid-18f2b233-e59e-4917-993c-4d12eb70ea77{fill:url(#uuid-f9861971-818c-471a-a113-b5cd67b3c679);}.uuid-eb98cefd-24af-4b60-9f08-5cf9b2742d7e{fill:url(#uuid-4c10d118-c5d7-42d7-9816-f9e8c73d3b6f);}.uuid-c8eb61ed-192e-4833-853c-84452854f099{fill:url(#uuid-eb89e8be-0b81-448d-8c89-e7ee6a8c80c3);}.uuid-4a8319f5-6238-450f-92cb-7b39b83f2e61{font-family:Harabara, Harabara;}.uuid-d2a5bc50-8262-47d4-b079-4673990e2b7b{fill:#9b9a9f;}.uuid-0aec3a1a-038a-475f-9af7-af8e4ff2c163{font-family:HereaboutsBold, Hereabouts;}.uuid-7fa65688-bd4b-4a8c-bdc6-ff7a981f4aac{fill:url(#uuid-e36d173c-b25c-45e7-81af-cd62b7c66588);}</style><linearGradient id="uuid-eb89e8be-0b81-448d-8c89-e7ee6a8c80c3" x1="71.28" y1="35" x2="175.28" y2="35" gradientTransform="matrix(1, 0, 0, 1, 0, 0)" gradientUnits="userSpaceOnUse"><stop offset="0" stop-color="#cce0f4"/><stop offset=".06" stop-color="#c2dcf2"/><stop offset=".17" stop-color="#a9d2ee"/><stop offset=".31" stop-color="#7fc2e7"/><stop offset=".46" stop-color="#46abdd"/><stop offset=".57" stop-color="#1e9cd7"/><stop offset=".87" stop-color="#0075be"/><stop offset=".99" stop-color="#005b97"/></linearGradient><linearGradient id="uuid-e36d173c-b25c-45e7-81af-cd62b7c66588" y1="92.5" y2="92.5" xlink:href="#uuid-eb89e8be-0b81-448d-8c89-e7ee6a8c80c3"/><linearGradient id="uuid-f9861971-818c-471a-a113-b5cd67b3c679" y1="150.5" y2="150.5" xlink:href="#uuid-eb89e8be-0b81-448d-8c89-e7ee6a8c80c3"/><linearGradient id="uuid-4c10d118-c5d7-42d7-9816-f9e8c73d3b6f" x1="227.28" y1="103.17" x2="281.28" y2="103.17" xlink:href="#uuid-eb89e8be-0b81-448d-8c89-e7ee6a8c80c3"/><linearGradient id="uuid-f523c8db-698a-4c65-885d-a709a81b43c1" x1="227.28" y1="133.03" x2="281.28" y2="133.03" xlink:href="#uuid-eb89e8be-0b81-448d-8c89-e7ee6a8c80c3"/><linearGradient id="uuid-b7972ea9-953c-4e59-9f2d-6f7f0b279919" x1="227.28" y1="162.14" x2="281.28" y2="162.14" xlink:href="#uuid-eb89e8be-0b81-448d-8c89-e7ee6a8c80c3"/></defs><text class="uuid-26e1e704-e45e-4175-9bca-305be364ec94" transform="translate(0 274.46)"><tspan class="uuid-4a8319f5-6238-450f-92cb-7b39b83f2e61" x="0" y="0">habitabl</tspan><tspan class="uuid-0aec3a1a-038a-475f-9af7-af8e4ff2c163" x="352.21" y="0">e</tspan></text><text class="uuid-b3df3090-1c64-4a69-9598-8c56c075057c" transform="translate(0 319.26)"><tspan x="0" y="0">INMOBILIARIA</tspan></text><polygon class="uuid-c8eb61ed-192e-4833-853c-84452854f099" points="71.28 30 175.28 0 175.28 48 71.28 70 71.28 30"/><polygon class="uuid-7fa65688-bd4b-4a8c-bdc6-ff7a981f4aac" points="71.28 82 175.28 63 175.28 111 71.28 122 71.28 82"/><polygon class="uuid-18f2b233-e59e-4917-993c-4d12eb70ea77" points="71.28 135 175.28 127 175.28 174 71.28 174 71.28 135"/><polygon class="uuid-eb98cefd-24af-4b60-9f08-5cf9b2742d7e" points="227.28 100.58 281.28 85 281.28 109.92 227.28 121.35 227.28 100.58"/><polygon class="uuid-4919bb7f-2349-48ef-a27e-f831b3007851" points="227.28 127.58 281.28 117.71 281.28 142.63 227.28 148.35 227.28 127.58"/><polygon class="uuid-52e7efe7-843f-482c-9fdf-1440af7e7877" points="227.28 154.1 281.28 149.94 281.28 174.35 227.28 174.35 227.28 154.1"/><polygon class="uuid-d2a5bc50-8262-47d4-b079-4673990e2b7b" points="175.28 1 227.28 101 227.28 121 175.28 48 175.28 1"/><polygon class="uuid-d2a5bc50-8262-47d4-b079-4673990e2b7b" points="175.28 63 227.28 128 227.28 148 175.28 111 175.28 63"/><polygon class="uuid-d2a5bc50-8262-47d4-b079-4673990e2b7b" points="175.28 127 227.28 155 227.28 174 175.28 174 175.28 127"/><polygon class="uuid-d2a5bc50-8262-47d4-b079-4673990e2b7b" points="281.43 86 308.13 137.35 308.13 147.61 281.43 110.13 281.43 86"/><polygon class="uuid-d2a5bc50-8262-47d4-b079-4673990e2b7b" points="281.43 117.83 308.13 151.21 308.13 161.48 281.43 142.48 281.43 117.83"/><polygon class="uuid-d2a5bc50-8262-47d4-b079-4673990e2b7b" points="281.43 150.69 308.13 165.07 308.13 174.83 281.43 174.83 281.43 150.69"/></svg>