<?xml version="1.0" encoding="UTF-8"?><svg id="uuid-1bf30d30-d248-4e06-94ee-7eef6c62f1c9" xmlns="http://www.w3.org/2000/svg" viewBox="0 0 24.01 23.97"><defs><style>.uuid-bd9122e5-83ed-4293-9bb8-93486cd6028a{fill:#fff;}</style></defs><path class="uuid-bd9122e5-83ed-4293-9bb8-93486cd6028a" d="M23.93,10.67C21.88,5.88,18.06,2.07,13.26,.05c-.19-.07-.41-.07-.6,.02-.19,.08-.34,.24-.41,.43-.04,.1-.06,.2-.06,.3,0,.1,.02,.21,.06,.3,.04,.1,.1,.18,.17,.26,.07,.07,.16,.13,.26,.17,4.42,1.87,7.95,5.38,9.84,9.79,.08,.19,.24,.33,.43,.41s.4,.07,.59,0c.1-.04,.18-.1,.26-.18,.07-.08,.13-.17,.17-.27,.04-.1,.05-.2,.05-.31,0-.11-.03-.21-.08-.3Z"/><path class="uuid-bd9122e5-83ed-4293-9bb8-93486cd6028a" d="M12.27,5.79c2.68,1.13,4.82,3.25,5.97,5.93,.06,.13,.16,.24,.28,.32,.12,.08,.26,.13,.41,.13,.11,0,.21-.03,.31-.07,.18-.09,.32-.24,.39-.43,.07-.19,.07-.4-.01-.58-1.3-3.04-3.73-5.45-6.77-6.73-.19-.07-.39-.06-.58,.02-.18,.08-.33,.22-.41,.41-.07,.19-.07,.4,0,.59,.08,.19,.23,.34,.41,.42Z"/><path class="uuid-bd9122e5-83ed-4293-9bb8-93486cd6028a" d="M19.85,15.14c-.17-.2-.38-.36-.62-.47-.24-.11-.5-.17-.76-.17s-.52,.06-.76,.17c-.24,.11-.45,.27-.62,.47-.65,.64-1.29,1.28-1.93,1.94-.03,.04-.06,.08-.11,.11-.04,.03-.09,.05-.14,.06-.05,0-.1,0-.15,0-.05-.01-.1-.03-.14-.06-.42-.23-.87-.41-1.27-.66-1.84-1.19-3.48-2.68-4.83-4.41-.71-.84-1.29-1.77-1.74-2.77-.05-.08-.06-.18-.05-.28,.02-.09,.07-.18,.15-.24,.65-.63,1.28-1.27,1.91-1.91,.21-.17,.38-.39,.49-.63,.11-.24,.17-.51,.17-.78s-.06-.54-.17-.78c-.11-.24-.28-.46-.49-.63-.5-.51-1.01-1.01-1.52-1.52l-1.57-1.57c-.18-.19-.39-.34-.63-.45-.24-.11-.49-.17-.75-.17-.26,0-.52,.07-.76,.18-.24,.11-.45,.26-.63,.45-.65,.64-1.28,1.3-1.94,1.93C.4,3.47,.05,4.23,0,5.04c-.06,1.33,.18,2.65,.69,3.87,.98,2.55,2.4,4.9,4.18,6.97,2.35,2.82,5.27,5.1,8.57,6.7,1.47,.77,3.07,1.25,4.72,1.39h.31c.5,.02,1.01-.07,1.47-.27,.46-.2,.88-.5,1.21-.87,.55-.62,1.17-1.19,1.76-1.78,.2-.17,.37-.39,.48-.63,.11-.24,.17-.51,.17-.78s-.06-.53-.17-.78c-.11-.24-.28-.46-.48-.63-1.02-1.03-2.05-2.06-3.09-3.09Zm1.98,4.81l-.59,.58c-.41,.39-.83,.79-1.24,1.25-.18,.21-.42,.38-.68,.49-.26,.11-.54,.15-.83,.13h-.22c-1.45-.13-2.86-.54-4.14-1.22-3.1-1.51-5.84-3.65-8.05-6.3-1.68-1.92-3.01-4.12-3.94-6.5-.43-1.01-.64-2.1-.6-3.2,.02-.42,.2-.82,.5-1.11,.41-.39,.79-.79,1.2-1.19l.79-.79c.03-.05,.07-.1,.12-.13,.05-.03,.11-.05,.17-.05s.12,.02,.17,.05c.05,.03,.09,.08,.12,.13,.35,.34,.68,.68,1.02,1.03l.52,.52,.79,.79,.75,.75c.29,.29,.28,.35,0,.61l-.27,.27c-.54,.55-1.08,1.09-1.65,1.64-.3,.28-.5,.65-.57,1.05-.08,.4-.03,.82,.14,1.19,.5,1.14,1.16,2.2,1.97,3.15,1.47,1.85,3.24,3.45,5.23,4.72,.31,.19,.62,.35,.9,.48l.43,.21c.3,.18,.64,.27,.99,.28,.27,0,.54-.06,.79-.17,.25-.11,.47-.27,.65-.47,.62-.64,1.25-1.26,1.91-1.91,.07-.09,.16-.15,.27-.18,.11,.03,.21,.09,.28,.18,1.05,1.05,2.1,2.08,3.15,3.09,.18,.28,.2,.35-.07,.63Z"/></svg>