<?xml version="1.0" encoding="UTF-8"?><svg id="uuid-274c2f41-815e-4f41-b39b-741311a0d487" xmlns="http://www.w3.org/2000/svg" viewBox="0 0 27.39 19.69"><defs><style>.uuid-87d327b2-3d65-4869-91fe-3a833568ee97{fill:#fff;}</style></defs><path class="uuid-87d327b2-3d65-4869-91fe-3a833568ee97" d="M23.97,0H3.42c-.91,0-1.78,.36-2.42,1C.36,1.65,0,2.52,0,3.42v12.84c0,.91,.36,1.78,1,2.42,.64,.64,1.51,1,2.42,1H23.97c.91,0,1.78-.36,2.42-1s1-1.51,1-2.42V3.42c0-.91-.36-1.78-1-2.42-.64-.64-1.51-1-2.42-1Zm1.71,16.26c0,.45-.18,.89-.5,1.21-.32,.32-.76,.5-1.21,.5H3.42c-.45,0-.89-.18-1.21-.5-.32-.32-.5-.76-.5-1.21V3.42c0-.45,.18-.89,.5-1.21,.32-.32,.76-.5,1.21-.5H23.97c.45,0,.89,.18,1.21,.5,.32,.32,.5,.76,.5,1.21v12.84Z"/><path class="uuid-87d327b2-3d65-4869-91fe-3a833568ee97" d="M22.57,4.48l-8.88,7.26L4.82,4.48c-.18-.12-.39-.16-.6-.13-.21,.03-.4,.14-.53,.3-.13,.16-.2,.37-.19,.58,.01,.21,.1,.41,.25,.56l9.42,7.7c.15,.12,.34,.19,.54,.19s.39-.07,.54-.19l9.42-7.7c.1-.07,.18-.15,.25-.25,.06-.1,.11-.21,.12-.33,.02-.12,.01-.24-.02-.35-.03-.12-.09-.22-.16-.32-.08-.09-.17-.17-.28-.22-.11-.05-.22-.08-.34-.09s-.24,.01-.35,.06c-.11,.04-.21,.11-.3,.19Z"/></svg>