<?xml version="1.0" encoding="UTF-8"?><svg id="uuid-744d52b0-633a-4a3e-b4b0-b2a1b64b9e4b" xmlns="http://www.w3.org/2000/svg" viewBox="0 0 106.57 81.17"><defs><style>.uuid-47b51ec8-b5ac-4535-88ab-a931ec425791{letter-spacing:-.01em;}.uuid-41811b26-4d4b-4ce4-9036-ee3a9ad10993,.uuid-055111ad-17a9-435e-9998-8f232037218d{fill:#fff;}.uuid-c0a756a3-b803-4ef9-ac86-df92f8e7bfb6{letter-spacing:-.01em;}.uuid-ffb52ef1-a069-41aa-9f45-b43724b5393e{letter-spacing:-.02em;}.uuid-4030fa24-7971-4541-9cd0-034150f87eca{letter-spacing:-.02em;}.uuid-b809d0ce-62a8-46d7-9044-77c80a026325{letter-spacing:0em;}.uuid-4b7ae1c2-4203-428a-bd24-36486e581741{letter-spacing:0em;}.uuid-53fc3a2c-7481-49c5-9661-b389c855aef8{letter-spacing:-.01em;}.uuid-055111ad-17a9-435e-9998-8f232037218d{font-family:SourceSansRoman-Regular, 'Source Sans Variable';font-size:17.15px;font-variation-settings:'wght' 400;}.uuid-eaabc5bc-035c-47ea-90eb-f56b0f154860{letter-spacing:-.02em;}</style></defs><polygon class="uuid-41811b26-4d4b-4ce4-9036-ee3a9ad10993" points="38.8 3.4 31.13 22.48 22.34 34.19 52.7 43.29 58.44 47.22 53.71 18.65 38.8 3.4"/><polygon class="uuid-41811b26-4d4b-4ce4-9036-ee3a9ad10993" points="53.09 0 45.46 8.95 54.4 18.19 58.79 44.81 62.17 13.82 53.09 0"/><polygon class="uuid-41811b26-4d4b-4ce4-9036-ee3a9ad10993" points="67.06 20.78 61.74 26.97 59.13 47.69 99.88 46.92 84.94 40.41 81.99 30.27 67.06 20.78"/><polygon class="uuid-41811b26-4d4b-4ce4-9036-ee3a9ad10993" points="10.55 45.89 21.64 34.88 48.36 43.06 10.55 45.89"/><text class="uuid-055111ad-17a9-435e-9998-8f232037218d" transform="translate(17.71 75.95) rotate(.22)"><tspan class="uuid-47b51ec8-b5ac-4535-88ab-a931ec425791" x="0" y="0">r</tspan><tspan class="uuid-53fc3a2c-7481-49c5-9661-b389c855aef8" x="5.78" y="0">e</tspan><tspan x="14.05" y="0">al e</tspan><tspan class="uuid-ffb52ef1-a069-41aa-9f45-b43724b5393e" x="39.01" y="0">s</tspan><tspan class="uuid-4030fa24-7971-4541-9cd0-034150f87eca" x="45.85" y="0">t</tspan><tspan class="uuid-c0a756a3-b803-4ef9-ac86-df92f8e7bfb6" x="51.29" y="0">at</tspan><tspan class="uuid-b809d0ce-62a8-46d7-9044-77c80a026325" x="65.26" y="0">e</tspan></text><text class="uuid-055111ad-17a9-435e-9998-8f232037218d" transform="translate(.02 62.07) rotate(.22)"><tspan x="0" y="0">moun</tspan><tspan class="uuid-eaabc5bc-035c-47ea-90eb-f56b0f154860" x="42.23" y="0">t</tspan><tspan x="47.67" y="0">ain vi</tspan><tspan class="uuid-4b7ae1c2-4203-428a-bd24-36486e581741" x="85.58" y="0">e</tspan><tspan x="94.18" y="0">w</tspan></text></svg>